<svg xmlns="http://www.w3.org/2000/svg" viewBox="0 0 270 170"><defs><linearGradient id="fade"><stop stop-color="#091b2b" stop-opacity="0"/><stop offset=".45" stop-color="#173b3a" stop-opacity=".45"/><stop offset="1" stop-color="#102d35" stop-opacity=".85"/></linearGradient></defs><path d="M0 170V145l21-7 18-20 18 13 24-24 27 30 22-11 25 19 24-22 25 15 31-18 35 17 20-6v39z" fill="url(#fade)"/><g fill="#173b3a" opacity=".58"><path d="M47 154l14-32h-8l13-25 13 25h-8l14 32zM87 158l17-41H94l16-30 16 30h-10l17 41zM210 157l14-34h-8l14-27 15 27h-9l15 34z"/></g><g fill="#102d35"><path d="M20 163l18-43H27l17-34 17 34H50l19 43zM141 165l16-39h-9l15-29 15 29h-9l17 39zM232 165l15-37h-9l15-29 16 29h-10l11 27v10z"/></g><g fill="none" stroke="#746352" stroke-width="1.4" opacity=".8"><path d="M202 154L220 41l18 113M211 99h18m-22 26h27m-29 18h31M214 72h12M204 154l31-29-24-26 19-27-10-31"/></g><circle cx="220" cy="38" r="3" fill="#c85a43"/><g fill="none" stroke="#b94d3c" stroke-width="1.4" opacity=".55"><path d="M229 30q12 8 0 16M235 23q23 15 0 30M241 16q34 22 0 44"/></g><path d="M0 169q61-14 112-2t158-6v9H0z" fill="#0b2230"/></svg>
