<svg xmlns="http://www.w3.org/2000/svg" viewBox="0 0 760 210" role="img" aria-labelledby="title desc"><title id="title">Decorative global network preview</title><desc id="desc">A stylized dotted world map with illustrative nodes and connections; locations do not represent real peers.</desc><defs><pattern id="dots" width="5" height="5" patternUnits="userSpaceOnUse"><circle cx="1.2" cy="1.2" r=".85" fill="#718797" opacity=".68"/></pattern><filter id="glow" x="-300%" y="-300%" width="700%" height="700%"><feGaussianBlur stdDeviation="2.2" result="b"/><feMerge><feMergeNode in="b"/><feMergeNode in="SourceGraphic"/></feMerge></filter></defs><g fill="url(#dots)"><path d="M18 49l17-14 31-9 31 5 13 11 25-1 23 12 19 4 10 13-12 12-20 2-12 16-15 4-9 18-12 1-8-22-12-8-15-1-11-18-24-8-17-5zM55 24l17-13 26 1 9 10-20 5-14 10z"/><path d="M146 111l17 4 15 13 10 25-5 19-14 27-12-3-5-25-13-22-6-22z"/><path d="M247 49l16-14 29-3 18 8 19-7 33 3 18 10 35-8 51 8 35-4 39 14 27 3 13 13-15 10-28-3-18 8-31-7-22 9-18-5-19 10-31-2-22 12-18-3-11 16-23-3-9-16-24-1-12-15-20-5-8-12-19-5z"/><path d="M287 100l25-7 26 10 13 23-9 23-14 8-8 30-17 12-12-35-13-21-7-26z"/><path d="M411 95l18-10 20 8 8 18-10 12-18-3-8-13zM462 91l14-6 9 12-9 13z"/><path d="M553 136l18-13 20 6 9 16 24 2 12 17-13 17-29-2-10-13-26-4-13-14zM641 72l17-7 14 9-7 10-19-3zM687 166l10-6 7 7-5 7z"/></g><g fill="none" stroke="#b94d3c" stroke-width="1" opacity=".6"><path d="M72 80Q180 12 287 67"/><path d="M94 96Q191 45 326 77"/><path d="M121 116Q211 38 353 72"/><path d="M169 135Q250 67 363 74"/><path d="M327 77Q407 25 491 76"/><path d="M358 81Q449 48 535 103"/><path d="M395 91Q480 74 584 143"/><path d="M305 115Q233 119 167 156"/><path d="M450 96Q517 121 605 160"/></g><g fill="#ef7458" filter="url(#glow)">
<circle cx="43" cy="65" r="2.2"/>
<circle cx="58" cy="83" r="1.7"/>
<circle cx="72" cy="80" r="2.4"/>
<circle cx="87" cy="92" r="1.8"/>
<circle cx="94" cy="96" r="2.1"/>
<circle cx="108" cy="71" r="1.7"/>
<circle cx="121" cy="116" r="2.4"/>
<circle cx="137" cy="85" r="1.8"/>
<circle cx="151" cy="106" r="1.7"/>
<circle cx="155" cy="136" r="1.8"/>
<circle cx="167" cy="156" r="2.4"/>
<circle cx="176" cy="177" r="1.7"/>
<circle cx="269" cy="65" r="1.8"/>
<circle cx="287" cy="67" r="2.6"/>
<circle cx="303" cy="74" r="1.8"/>
<circle cx="315" cy="61" r="1.8"/>
<circle cx="326" cy="77" r="2.4"/>
<circle cx="340" cy="67" r="1.7"/>
<circle cx="353" cy="72" r="2.2"/>
<circle cx="363" cy="74" r="1.8"/>
<circle cx="296" cy="115" r="1.8"/>
<circle cx="314" cy="137" r="2.2"/>
<circle cx="329" cy="157" r="1.7"/>
<circle cx="395" cy="91" r="2.1"/>
<circle cx="421" cy="82" r="1.8"/>
<circle cx="450" cy="96" r="2.5"/>
<circle cx="472" cy="75" r="1.8"/>
<circle cx="491" cy="76" r="2.4"/>
<circle cx="514" cy="93" r="1.7"/>
<circle cx="535" cy="103" r="2.4"/>
<circle cx="570" cy="143" r="1.8"/>
<circle cx="584" cy="143" r="2.4"/>
<circle cx="605" cy="160" r="2.1"/>
</g></svg>
